<svg width="176" height="19" viewBox="0 0 176 19" fill="none" xmlns="http://www.w3.org/2000/svg">
<path d="M14.2385 13.8282C14.2385 14.4766 14.1174 15.0352 13.8752 15.504C13.6409 15.9727 13.3245 16.3712 12.926 16.6993C12.5276 17.0274 12.0666 17.2969 11.5432 17.5079C11.0276 17.711 10.4885 17.8712 9.92602 17.9883C9.36352 18.1055 8.79712 18.1837 8.22681 18.2227C7.66431 18.2618 7.13696 18.2813 6.64477 18.2813C6.1604 18.2813 5.65649 18.2618 5.13306 18.2227C4.61743 18.1915 4.10181 18.1329 3.58618 18.0469C3.07056 17.961 2.56274 17.8477 2.06274 17.7071C1.56274 17.5587 1.09009 17.3751 0.644775 17.1563L0.621338 2.06256C1.05884 1.88287 1.52368 1.72272 2.01587 1.58209C2.50806 1.43365 3.00806 1.31256 3.51587 1.21881C4.03149 1.11725 4.54321 1.04303 5.05103 0.996155C5.55884 0.941467 6.05103 0.914124 6.52759 0.914124C7.08227 0.914124 7.64087 0.94928 8.20337 1.01959C8.77368 1.0899 9.32056 1.20709 9.84399 1.37115C10.3674 1.53522 10.8557 1.75006 11.3088 2.01569C11.762 2.2735 12.1565 2.59381 12.4924 2.97662C12.8362 3.35944 13.1018 3.80475 13.2893 4.31256C13.4846 4.82037 13.5823 5.40631 13.5823 6.07037C13.5823 6.50787 13.5198 6.91803 13.3948 7.30084C13.2698 7.68365 13.0901 8.0274 12.8557 8.33209C12.6213 8.63678 12.3362 8.8985 12.0002 9.11725C11.6643 9.32819 11.2854 9.48444 10.8635 9.586C11.3713 9.71881 11.8323 9.91412 12.2463 10.1719C12.6682 10.4297 13.0237 10.7422 13.3127 11.1094C13.6096 11.4766 13.8362 11.8907 13.9924 12.3516C14.1565 12.8126 14.2385 13.3047 14.2385 13.8282ZM8.2854 7.1485C8.2854 6.92194 8.23852 6.73053 8.14477 6.57428C8.05102 6.41022 7.93384 6.2774 7.79321 6.17584C7.6604 6.07428 7.51196 6.00006 7.3479 5.95319C7.19165 5.90631 7.05102 5.88287 6.92602 5.88287C6.76977 5.88287 6.61743 5.90631 6.46899 5.95319C6.32056 6.00006 6.17603 6.05475 6.0354 6.11725L5.96509 8.71881C6.14478 8.71881 6.36743 8.70319 6.63306 8.67194C6.89868 8.64069 7.15259 8.57428 7.39477 8.47272C7.64477 8.36334 7.85571 8.20709 8.02759 8.00397C8.19946 7.79303 8.2854 7.50787 8.2854 7.1485ZM6.62134 10.9688C6.39478 10.9688 6.17603 10.9922 5.96509 11.0391L5.91821 13.711C6.0354 13.7344 6.14868 13.7579 6.25806 13.7813C6.37524 13.7969 6.48853 13.8047 6.5979 13.8047C6.76196 13.8047 6.94165 13.7891 7.13696 13.7579C7.33227 13.7188 7.51587 13.6485 7.68774 13.5469C7.85962 13.4376 8.00024 13.293 8.10962 13.1133C8.22681 12.9337 8.2854 12.6954 8.2854 12.3985C8.2854 12.1016 8.22681 11.8594 8.10962 11.6719C8.00024 11.4844 7.86352 11.3399 7.69946 11.2383C7.5354 11.129 7.35571 11.0587 7.1604 11.0274C6.96509 10.9883 6.7854 10.9688 6.62134 10.9688ZM27.7151 8.53131C27.7151 9.211 27.6682 9.89069 27.5745 10.5704C26.2385 10.6563 24.9104 10.7969 23.5901 10.9922C22.2698 11.1797 20.9495 11.3672 19.6291 11.5547C19.8323 12.1172 20.1487 12.5665 20.5784 12.9024C21.0159 13.2383 21.5354 13.4063 22.137 13.4063C22.4495 13.4063 22.7893 13.3477 23.1565 13.2305C23.5315 13.1133 23.9026 12.9688 24.2698 12.7969C24.637 12.6172 24.9885 12.4258 25.3245 12.2227C25.6604 12.0196 25.9495 11.836 26.1916 11.6719L25.6291 16.9922C25.3245 17.2266 24.9924 17.4258 24.6331 17.5899C24.2815 17.754 23.9143 17.8868 23.5315 17.9883C23.1487 18.0899 22.762 18.1641 22.3713 18.211C21.9807 18.2579 21.5979 18.2813 21.2229 18.2813C20.4495 18.2813 19.7424 18.1758 19.1018 17.9649C18.4612 17.754 17.8791 17.461 17.3557 17.086C16.8401 16.7032 16.387 16.254 15.9963 15.7383C15.6057 15.2227 15.2815 14.6602 15.0237 14.0508C14.7659 13.4415 14.5706 12.7969 14.4377 12.1172C14.3049 11.4376 14.2385 10.7501 14.2385 10.0547C14.2385 9.32819 14.3049 8.60162 14.4377 7.87506C14.5706 7.1485 14.7698 6.44928 15.0354 5.7774C15.3088 5.10553 15.6487 4.48444 16.0549 3.91412C16.469 3.336 16.9495 2.83209 17.4963 2.4024C18.0432 1.97272 18.6604 1.63678 19.3479 1.39459C20.0432 1.1524 20.8088 1.03131 21.6448 1.03131C22.3401 1.03131 22.9729 1.12897 23.5432 1.32428C24.1213 1.51178 24.6331 1.7774 25.0784 2.12115C25.5315 2.45709 25.9221 2.85944 26.2502 3.32819C26.5862 3.79694 26.8596 4.31256 27.0706 4.87506C27.2893 5.42975 27.4495 6.01959 27.551 6.64459C27.6604 7.26178 27.7151 7.89069 27.7151 8.53131ZM23.0276 7.92194C23.0276 7.70319 23.0041 7.48053 22.9573 7.25397C22.9104 7.01959 22.8323 6.80865 22.7229 6.62115C22.6213 6.43365 22.4846 6.28131 22.3127 6.16412C22.1409 6.03912 21.926 5.97662 21.6682 5.97662C21.3557 5.97662 21.0784 6.06256 20.8362 6.23444C20.6018 6.3985 20.3987 6.60944 20.2268 6.86725C20.0549 7.11725 19.9143 7.39069 19.8049 7.68756C19.6956 7.98444 19.6135 8.25787 19.5588 8.50787L23.0276 8.17975V7.92194ZM40.5002 12.0001C40.5002 13.0704 40.3127 13.9962 39.9377 14.7774C39.5706 15.5508 39.0627 16.1915 38.4143 16.6993C37.7737 17.1993 37.0198 17.5704 36.1526 17.8126C35.2932 18.0469 34.3674 18.1641 33.3752 18.1641C32.9924 18.1641 32.5706 18.1133 32.1096 18.0118C31.6565 17.9102 31.1956 17.7852 30.7268 17.6368C30.2581 17.4805 29.8049 17.3165 29.3674 17.1446C28.9377 16.9649 28.5549 16.7969 28.219 16.6407L28.7346 12.0469C29.3987 12.4454 30.1331 12.7501 30.9377 12.961C31.7502 13.1641 32.5471 13.2657 33.3284 13.2657C33.4768 13.2657 33.6565 13.2618 33.8674 13.254C34.0784 13.2383 34.2776 13.2032 34.4651 13.1485C34.6604 13.086 34.8245 12.9962 34.9573 12.879C35.0901 12.7618 35.1565 12.5938 35.1565 12.3751C35.1565 12.2266 35.1096 12.1016 35.0159 12.0001C34.9221 11.8907 34.801 11.8047 34.6526 11.7422C34.5041 11.6719 34.3362 11.6212 34.1487 11.5899C33.9612 11.5508 33.7776 11.5235 33.5979 11.5079C33.4182 11.4922 33.2502 11.4844 33.094 11.4844C32.9377 11.4844 32.8127 11.4844 32.719 11.4844C32.0471 11.4844 31.4338 11.379 30.8791 11.168C30.3323 10.9571 29.8596 10.6602 29.4612 10.2774C29.0706 9.88678 28.7659 9.41803 28.5471 8.87115C28.3284 8.31647 28.219 7.70319 28.219 7.03131C28.219 6.10944 28.4026 5.28522 28.7698 4.55865C29.1448 3.82428 29.6409 3.20319 30.2581 2.69537C30.8831 2.17975 31.5979 1.78522 32.4026 1.51178C33.2073 1.23834 34.0393 1.10162 34.8987 1.10162C35.2815 1.10162 35.676 1.11725 36.0823 1.1485C36.4885 1.17194 36.8909 1.21881 37.2893 1.28912C37.6956 1.35944 38.0901 1.44928 38.4729 1.55865C38.8557 1.66803 39.219 1.80475 39.5627 1.96881L39.1174 6.72662C38.5862 6.54694 38.0276 6.3985 37.4416 6.28131C36.8635 6.15631 36.2971 6.09381 35.7424 6.09381C35.6409 6.09381 35.5081 6.09772 35.344 6.10553C35.1877 6.10553 35.0198 6.11725 34.8401 6.14069C34.6682 6.15631 34.4924 6.18365 34.3127 6.22272C34.1331 6.26178 33.9729 6.31647 33.8323 6.38678C33.6916 6.44928 33.5784 6.53522 33.4924 6.64459C33.4065 6.75397 33.3674 6.88287 33.3752 7.03131C33.3831 7.20319 33.4456 7.336 33.5627 7.42975C33.6877 7.5235 33.844 7.59381 34.0315 7.64069C34.2268 7.67975 34.4377 7.69928 34.6643 7.69928C34.8987 7.69928 35.1291 7.69537 35.3557 7.68756C35.5823 7.67194 35.7932 7.66022 35.9885 7.6524C36.1838 7.63678 36.344 7.63287 36.469 7.64069C37.094 7.67975 37.6565 7.81256 38.1565 8.03912C38.6565 8.26569 39.0784 8.56647 39.4221 8.94147C39.7737 9.31647 40.0393 9.76569 40.219 10.2891C40.4065 10.8047 40.5002 11.3751 40.5002 12.0001ZM53.3909 1.47662L53.2737 6.44537L49.7815 6.586L49.3596 17.461L44.4143 17.7188L43.969 6.84381L40.4768 7.03131L40.6174 1.50006L53.3909 1.47662ZM134.461 7.19537C134.461 7.95319 134.348 8.62506 134.121 9.211C133.895 9.79694 133.582 10.3126 133.184 10.7579C132.793 11.1954 132.332 11.5665 131.801 11.8712C131.27 12.168 130.699 12.4141 130.09 12.6094C129.489 12.7969 128.864 12.9376 128.215 13.0313C127.567 13.1172 126.93 13.1641 126.305 13.1719V18.1641H120.844C120.844 17.2735 120.844 16.4063 120.844 15.5626C120.852 14.7188 120.856 13.8829 120.856 13.0547C120.864 12.2188 120.867 11.379 120.867 10.5352C120.875 9.69147 120.883 8.82037 120.891 7.92194C120.906 6.96881 120.91 6.01569 120.903 5.06256C120.895 4.10944 120.914 3.1485 120.961 2.17975C121.961 1.88287 122.961 1.66022 123.961 1.51178C124.961 1.36334 125.992 1.28912 127.055 1.28912C127.656 1.28912 128.258 1.3399 128.86 1.44147C129.461 1.53522 130.035 1.68756 130.582 1.8985C131.137 2.10944 131.649 2.37506 132.117 2.69537C132.594 3.00787 133.004 3.38287 133.348 3.82037C133.692 4.25787 133.961 4.75787 134.156 5.32037C134.36 5.88287 134.461 6.50787 134.461 7.19537ZM129.258 7.59381C129.258 7.086 129.102 6.69147 128.789 6.41022C128.485 6.12115 128.086 5.97662 127.594 5.97662C127.43 5.97662 127.258 5.99225 127.078 6.0235C126.906 6.04694 126.742 6.07819 126.586 6.11725L126.446 9.53912C126.555 9.55475 126.66 9.56256 126.762 9.56256C126.864 9.56256 126.969 9.56256 127.078 9.56256C127.36 9.56256 127.629 9.51569 127.887 9.42194C128.153 9.32819 128.387 9.19537 128.59 9.0235C128.793 8.84381 128.953 8.63678 129.071 8.4024C129.196 8.16022 129.258 7.89069 129.258 7.59381ZM145.406 11.7891L144.914 16.9922L135.047 17.7657L135.422 1.03131H141.516L140.649 11.7891H145.406ZM160.735 16.9922L154.922 17.7422L154.219 15.0938H151.547L150.961 17.7422L144.985 17.1563L149.649 1.54694L156.164 1.21881L160.735 16.9922ZM153.797 11.5079L152.906 7.42975L152.039 11.5079H153.797ZM175.524 12.0704C175.524 12.9532 175.512 13.8282 175.489 14.6954C175.473 15.5547 175.446 16.4219 175.406 17.2969L168.656 17.1797C168.891 15.7969 169.094 14.418 169.266 13.043C169.438 11.6602 169.524 10.2657 169.524 8.85944C169.524 8.75787 169.52 8.59381 169.512 8.36725C169.504 8.14069 169.489 7.88678 169.465 7.60553C169.442 7.31647 169.406 7.0235 169.36 6.72662C169.321 6.42194 169.262 6.14459 169.184 5.89459C169.114 5.64459 169.024 5.44147 168.914 5.28522C168.813 5.12115 168.688 5.03912 168.539 5.03912C168.274 5.03912 168.047 5.11725 167.86 5.2735C167.68 5.42975 167.528 5.63287 167.403 5.88287C167.285 6.12506 167.192 6.3985 167.121 6.70319C167.051 7.00787 166.996 7.31256 166.957 7.61725C166.926 7.92194 166.903 8.211 166.887 8.48444C166.879 8.75006 166.875 8.96881 166.875 9.14069C166.836 10.5235 166.805 11.8985 166.781 13.2657C166.758 14.6251 166.727 16.0001 166.688 17.3907L160.711 17.6485C160.867 14.8907 161.016 12.1485 161.156 9.42194C161.305 6.69537 161.422 3.95319 161.508 1.19537L167.039 0.914124L166.992 2.78912C167.211 2.5235 167.446 2.2735 167.696 2.03912C167.953 1.80475 168.227 1.60553 168.516 1.44147C168.805 1.26959 169.11 1.13678 169.43 1.04303C169.758 0.941467 170.102 0.890686 170.461 0.890686C171.125 0.890686 171.707 1.00006 172.207 1.21881C172.707 1.43756 173.137 1.73444 173.496 2.10944C173.856 2.48444 174.156 2.92975 174.399 3.44537C174.641 3.95319 174.836 4.49615 174.985 5.07428C175.133 5.6524 175.246 6.25787 175.324 6.89069C175.403 7.51569 175.453 8.13287 175.477 8.74225C175.508 9.35162 175.524 9.94147 175.524 10.5118C175.524 11.0821 175.524 11.6016 175.524 12.0704Z" fill="#333333"/>
<path d="M71.1565 1.47662L71.0393 6.44537L67.5471 6.586L67.1252 17.461L62.1799 17.7188L61.7346 6.84381L58.2424 7.03131L58.3831 1.50006L71.1565 1.47662ZM86.0745 9.0235C86.0745 9.73444 85.9924 10.4219 85.8284 11.086C85.6643 11.7422 85.426 12.3594 85.1135 12.9376C84.8088 13.5157 84.4338 14.0469 83.9885 14.5313C83.551 15.0079 83.0549 15.418 82.5002 15.7618C81.9534 16.1055 81.3557 16.3751 80.7073 16.5704C80.0588 16.7579 79.3713 16.8516 78.6448 16.8516C77.9416 16.8516 77.2698 16.7618 76.6291 16.5821C75.9963 16.4024 75.4026 16.1524 74.8479 15.8321C74.2932 15.504 73.7893 15.1133 73.3362 14.6602C72.8909 14.1993 72.5081 13.6915 72.1877 13.1368C71.8752 12.5743 71.6291 11.9727 71.4495 11.3321C71.2776 10.6915 71.1916 10.0235 71.1916 9.32819C71.1916 8.6485 71.2737 7.98444 71.4377 7.336C71.6018 6.67975 71.8362 6.06256 72.1409 5.48444C72.4534 4.90631 72.8284 4.37506 73.2659 3.89069C73.7034 3.40631 74.1916 2.98834 74.7307 2.63678C75.2776 2.28522 75.8674 2.01178 76.5002 1.81647C77.1331 1.62115 77.801 1.5235 78.5041 1.5235C79.637 1.5235 80.6682 1.69928 81.5979 2.05084C82.5354 2.4024 83.3323 2.90631 83.9885 3.56256C84.6526 4.211 85.1643 5.00006 85.5237 5.92975C85.8909 6.85162 86.0745 7.88287 86.0745 9.0235ZM80.8713 9.32819C80.8713 8.99225 80.8206 8.66803 80.719 8.35553C80.6252 8.03522 80.4846 7.75397 80.2971 7.51178C80.1096 7.26178 79.8752 7.06256 79.594 6.91412C79.3206 6.75787 79.0041 6.67975 78.6448 6.67975C78.2776 6.67975 77.9495 6.74615 77.6604 6.87897C77.3713 7.01178 77.1213 7.19537 76.9104 7.42975C76.7073 7.65631 76.551 7.92584 76.4416 8.23834C76.3323 8.54303 76.2776 8.86725 76.2776 9.211C76.2776 9.53912 76.3245 9.86725 76.4182 10.1954C76.512 10.5235 76.6526 10.8204 76.8401 11.086C77.0276 11.3516 77.2581 11.5665 77.5315 11.7305C77.8127 11.8946 78.137 11.9766 78.5041 11.9766C78.8713 11.9766 79.1995 11.9063 79.4885 11.7657C79.7854 11.6172 80.0354 11.4219 80.2385 11.1797C80.4416 10.9297 80.5979 10.6446 80.7073 10.3243C80.8166 10.004 80.8713 9.67194 80.8713 9.32819ZM100.864 1.50006C100.512 4.25006 100.211 6.98834 99.9612 9.7149C99.7112 12.4337 99.4729 15.1719 99.2463 17.9297L94.4416 18.2813L94.6526 16.4766C94.4963 16.6563 94.3127 16.8126 94.1018 16.9454C93.8987 17.0782 93.6799 17.1876 93.4456 17.2735C93.2112 17.3516 92.969 17.4102 92.719 17.4493C92.469 17.4805 92.2307 17.4922 92.0041 17.4844C91.4729 17.4766 90.9729 17.3751 90.5041 17.1797C90.0354 16.9766 89.6057 16.711 89.2151 16.3829C88.8245 16.0469 88.4729 15.6602 88.1604 15.2227C87.8479 14.7774 87.5823 14.3126 87.3635 13.8282C87.1526 13.336 86.9885 12.836 86.8713 12.3282C86.762 11.8204 86.7073 11.3282 86.7073 10.8516C86.7073 10.1485 86.719 9.42194 86.7424 8.67194C86.7737 7.91412 86.8245 7.15631 86.8948 6.3985C86.9651 5.64069 87.0549 4.89069 87.1643 4.1485C87.2815 3.40631 87.426 2.69537 87.5979 2.01569C88.551 2.06256 89.5081 2.10553 90.469 2.14459C91.4299 2.18365 92.387 2.19537 93.3401 2.17975C93.1604 2.85944 92.9807 3.54303 92.801 4.23053C92.6291 4.91022 92.4729 5.59772 92.3323 6.29303C92.1916 6.98053 92.0784 7.67194 91.9924 8.36725C91.9065 9.06256 91.8635 9.76569 91.8635 10.4766C91.8635 10.6407 91.8713 10.8751 91.887 11.1797C91.9026 11.4844 91.9416 11.7852 92.0041 12.0821C92.0745 12.379 92.176 12.6407 92.3088 12.8672C92.4495 13.086 92.6448 13.1954 92.8948 13.1954C93.1916 13.1954 93.4573 13.0704 93.6916 12.8204C93.926 12.5626 94.1331 12.2188 94.3127 11.7891C94.4924 11.3594 94.6448 10.8633 94.7698 10.3008C94.9026 9.73834 95.012 9.1524 95.0979 8.54303C95.1916 7.92584 95.2659 7.30475 95.3206 6.67975C95.3752 6.05475 95.4143 5.46881 95.4377 4.92194C95.469 4.36725 95.4885 3.87115 95.4963 3.43365C95.512 2.99615 95.5198 2.65631 95.5198 2.41412C95.5198 2.25787 95.5159 2.10553 95.5081 1.95709C95.5002 1.80865 95.4885 1.65631 95.4729 1.50006C95.9807 1.51569 96.4846 1.5274 96.9846 1.53522C97.4846 1.54303 97.9885 1.54694 98.4963 1.54694C98.887 1.54694 99.2776 1.54694 99.6682 1.54694C100.067 1.53912 100.465 1.5235 100.864 1.50006ZM115.301 6.70319C115.301 7.31256 115.246 7.86725 115.137 8.36725C115.035 8.85944 114.871 9.31256 114.645 9.72662C114.418 10.1407 114.125 10.5235 113.766 10.8751C113.406 11.2266 112.973 11.5626 112.465 11.8829L115.254 16.8516L109.981 17.8829L108.176 12.8907L106.723 12.9376L106.512 17.8126H101.473C101.512 16.0313 101.547 14.2579 101.578 12.4922C101.617 10.7266 101.66 8.95319 101.707 7.17194C101.723 6.2735 101.739 5.38287 101.754 4.50006C101.77 3.61725 101.801 2.72662 101.848 1.82819C102.395 1.62506 102.934 1.45709 103.465 1.32428C103.996 1.19147 104.528 1.0899 105.059 1.01959C105.598 0.941467 106.141 0.890686 106.688 0.867249C107.242 0.835999 107.809 0.820374 108.387 0.820374C109.278 0.820374 110.137 0.945374 110.965 1.19537C111.801 1.43756 112.539 1.80475 113.18 2.29694C113.821 2.78912 114.332 3.4024 114.715 4.13678C115.106 4.87115 115.301 5.72662 115.301 6.70319ZM110.051 7.07819C110.051 6.75006 110.004 6.44928 109.91 6.17584C109.824 5.9024 109.692 5.66803 109.512 5.47272C109.34 5.26959 109.121 5.11334 108.856 5.00397C108.598 4.88678 108.293 4.82819 107.942 4.82819C107.785 4.82819 107.633 4.8399 107.485 4.86334C107.336 4.87897 107.192 4.90631 107.051 4.94537L106.864 9.30475H107.145C107.481 9.30475 107.821 9.26178 108.164 9.17584C108.516 9.0899 108.828 8.95709 109.102 8.7774C109.383 8.59772 109.61 8.36725 109.781 8.086C109.961 7.80475 110.051 7.46881 110.051 7.07819Z" fill="#EC1F46"/>
</svg>
